<svg width="94" height="93" viewBox="0 0 94 93" fill="none" xmlns="http://www.w3.org/2000/svg">
<circle cx="47.0009" cy="46.8391" r="46.0645" fill="#121420"/>
<mask id="path-2-inside-1_55_302" fill="white">
<path d="M86.4836 46.8389C86.4836 52.024 85.4623 57.1583 83.4781 61.9487C81.4938 66.7391 78.5855 71.0918 74.9191 74.7582C71.2526 78.4246 66.9 81.3329 62.1096 83.3172C57.3192 85.3015 52.1848 86.3227 46.9997 86.3227C41.8146 86.3227 36.6803 85.3015 31.8899 83.3172C27.0995 81.3329 22.7468 78.4246 19.0804 74.7582C15.414 71.0918 12.5056 66.7391 10.5214 61.9487C8.53715 57.1583 7.51587 52.0239 7.51587 46.8389L27.0276 46.8389C27.0276 49.4616 27.5442 52.0587 28.5479 54.4819C29.5516 56.905 31.0227 59.1067 32.8773 60.9613C34.7319 62.8159 36.9336 64.287 39.3567 65.2907C41.7799 66.2944 44.377 66.811 46.9997 66.811C49.6225 66.811 52.2196 66.2944 54.6428 65.2907C57.0659 64.287 59.2676 62.8159 61.1222 60.9613C62.9768 59.1067 64.4479 56.905 65.4516 54.4819C66.4553 52.0587 66.9719 49.4616 66.9719 46.8389H86.4836Z"/>
</mask>
<path d="M86.4836 46.8389C86.4836 52.024 85.4623 57.1583 83.4781 61.9487C81.4938 66.7391 78.5855 71.0918 74.9191 74.7582C71.2526 78.4246 66.9 81.3329 62.1096 83.3172C57.3192 85.3015 52.1848 86.3227 46.9997 86.3227C41.8146 86.3227 36.6803 85.3015 31.8899 83.3172C27.0995 81.3329 22.7468 78.4246 19.0804 74.7582C15.414 71.0918 12.5056 66.7391 10.5214 61.9487C8.53715 57.1583 7.51587 52.0239 7.51587 46.8389L27.0276 46.8389C27.0276 49.4616 27.5442 52.0587 28.5479 54.4819C29.5516 56.905 31.0227 59.1067 32.8773 60.9613C34.7319 62.8159 36.9336 64.287 39.3567 65.2907C41.7799 66.2944 44.377 66.811 46.9997 66.811C49.6225 66.811 52.2196 66.2944 54.6428 65.2907C57.0659 64.287 59.2676 62.8159 61.1222 60.9613C62.9768 59.1067 64.4479 56.905 65.4516 54.4819C66.4553 52.0587 66.9719 49.4616 66.9719 46.8389H86.4836Z" stroke="white" stroke-width="1.31613" mask="url(#path-2-inside-1_55_302)"/>
<path d="M58.7585 49.9607L47.6537 61.0655C47.4802 61.2388 47.2449 61.3362 46.9997 61.3362C46.7545 61.3362 46.5193 61.2388 46.3458 61.0655L35.2409 49.9607C35.0775 49.7853 34.9885 49.5532 34.9927 49.3135C34.9969 49.0737 35.094 48.845 35.2636 48.6755C35.4331 48.5059 35.6619 48.4088 35.9016 48.4046C36.1414 48.4003 36.3734 48.4893 36.5488 48.6528L46.0743 58.1767V33.2664C46.0743 33.021 46.1718 32.7856 46.3454 32.612C46.5189 32.4385 46.7543 32.341 46.9997 32.341C47.2451 32.341 47.4805 32.4385 47.6541 32.612C47.8276 32.7856 47.9251 33.021 47.9251 33.2664V58.1767L57.4506 48.6528C57.626 48.4893 57.8581 48.4003 58.0978 48.4046C58.3375 48.4088 58.5663 48.5059 58.7358 48.6755C58.9054 48.845 59.0025 49.0737 59.0067 49.3135C59.011 49.5532 58.922 49.7853 58.7585 49.9607Z" fill="white"/>
</svg>
