<svg width="42" height="42" viewBox="0 0 42 42" fill="none" xmlns="http://www.w3.org/2000/svg">
<rect x="0.423462" y="0.339355" width="40.8255" height="40.8255" rx="20.4128" fill="#FFC69C"/>
<path d="M26.0329 18.521C26.0329 17.8386 25.8985 17.163 25.6374 16.5326C25.3763 15.9022 24.9936 15.3294 24.5111 14.8469C24.0286 14.3644 23.4558 13.9817 22.8254 13.7205C22.195 13.4594 21.5193 13.325 20.837 13.325C20.1546 13.325 19.479 13.4594 18.8486 13.7205C18.2181 13.9817 17.6453 14.3644 17.1629 14.8469C16.6804 15.3294 16.2976 15.9022 16.0365 16.5326C15.7754 17.163 15.641 17.8386 15.641 18.521C15.641 19.5505 15.9453 20.5081 16.4612 21.3157H16.4553C18.2071 24.0584 20.837 28.1707 20.837 28.1707L25.2187 21.3157H25.2135C25.7482 20.4816 26.0326 19.5117 26.0329 18.521ZM20.837 20.7478C20.2464 20.7478 19.68 20.5132 19.2623 20.0956C18.8447 19.678 18.6101 19.1116 18.6101 18.521C18.6101 17.9304 18.8447 17.364 19.2623 16.9464C19.68 16.5288 20.2464 16.2941 20.837 16.2941C21.4276 16.2941 21.994 16.5288 22.4116 16.9464C22.8292 17.364 23.0638 17.9304 23.0638 18.521C23.0638 19.1116 22.8292 19.678 22.4116 20.0956C21.994 20.5132 21.4276 20.7478 20.837 20.7478Z" fill="black"/>
</svg>
