<svg width="42" height="42" viewBox="0 0 42 42" fill="none" xmlns="http://www.w3.org/2000/svg">
<rect x="0.789047" y="0.339355" width="40.8255" height="40.8255" rx="20.4128" fill="#FFC69C"/>
<path fill-rule="evenodd" clip-rule="evenodd" d="M21.2013 19.8601C21.91 19.8601 22.5897 19.5786 23.0909 19.0774C23.592 18.5763 23.8735 17.8966 23.8735 17.1879C23.8735 16.4792 23.592 15.7995 23.0909 15.2984C22.5897 14.7972 21.91 14.5157 21.2013 14.5157C20.4926 14.5157 19.8129 14.7972 19.3118 15.2984C18.8106 15.7995 18.5291 16.4792 18.5291 17.1879C18.5291 17.8966 18.8106 18.5763 19.3118 19.0774C19.8129 19.5786 20.4926 19.8601 21.2013 19.8601ZM17.4147 27.8768C16.0624 27.8768 14.9233 26.74 15.4408 25.4907C15.7541 24.7342 16.2134 24.0468 16.7924 23.4678C17.3714 22.8888 18.0587 22.4296 18.8152 22.1162C19.5717 21.8029 20.3825 21.6416 21.2013 21.6416C22.0201 21.6416 22.8309 21.8029 23.5874 22.1162C24.3439 22.4296 25.0313 22.8888 25.6103 23.4678C26.1892 24.0468 26.6485 24.7342 26.9619 25.4907C27.4794 26.74 26.3403 27.8768 24.988 27.8768H17.4147Z" fill="black"/>
</svg>
