<svg width="21" height="21" viewBox="0 0 21 21" fill="none" xmlns="http://www.w3.org/2000/svg">
<path d="M10.0908 7.03735C9.06817 7.03735 8.0874 7.44361 7.36426 8.16674C6.64113 8.88987 6.23488 9.87065 6.23488 10.8933C6.23488 11.916 6.64113 12.8968 7.36426 13.6199C8.0874 14.343 9.06817 14.7493 10.0908 14.7493C11.1135 14.7493 12.0943 14.343 12.8174 13.6199C13.5405 12.8968 13.9468 11.916 13.9468 10.8933C13.9468 9.87065 13.5405 8.88987 12.8174 8.16674C12.0943 7.44361 11.1135 7.03735 10.0908 7.03735ZM10.0908 13.3975C9.42646 13.3975 8.78929 13.1336 8.31951 12.6638C7.84972 12.194 7.5858 11.5569 7.5858 10.8925C7.5858 10.2281 7.84972 9.59094 8.31951 9.12115C8.78929 8.65136 9.42646 8.38744 10.0908 8.38744C10.7552 8.38744 11.3924 8.65136 11.8622 9.12115C12.332 9.59094 12.5959 10.2281 12.5959 10.8925C12.5959 11.5569 12.332 12.194 11.8622 12.6638C11.3924 13.1336 10.7552 13.3975 10.0908 13.3975Z" fill="white"/>
<path d="M14.0979 7.79374C14.5941 7.79374 14.9964 7.39143 14.9964 6.89516C14.9964 6.39889 14.5941 5.99658 14.0979 5.99658C13.6016 5.99658 13.1993 6.39889 13.1993 6.89516C13.1993 7.39143 13.6016 7.79374 14.0979 7.79374Z" fill="white"/>
<path d="M17.2088 5.9817C17.0157 5.48318 16.7207 5.03045 16.3426 4.65251C15.9645 4.27457 15.5117 3.97973 15.0131 3.78687C14.4296 3.56785 13.8133 3.44943 13.1902 3.43663C12.3871 3.40161 12.1328 3.3916 10.0964 3.3916C8.06002 3.3916 7.79901 3.3916 7.00264 3.43663C6.38004 3.44877 5.76409 3.56722 5.1814 3.78687C4.68267 3.9795 4.22972 4.27426 3.8516 4.65223C3.47349 5.03021 3.17856 5.48305 2.98573 5.9817C2.76667 6.56511 2.64852 7.18155 2.63633 7.80461C2.60047 8.60682 2.58963 8.86116 2.58963 10.8984C2.58963 12.9348 2.58963 13.1941 2.63633 13.9922C2.64884 14.6159 2.76642 15.2313 2.98573 15.8159C3.1791 16.3144 3.47431 16.767 3.85252 17.145C4.23073 17.5229 4.68361 17.8177 5.18223 18.0107C5.76382 18.2385 6.38002 18.3655 7.0043 18.386C7.80735 18.421 8.06169 18.4318 10.0981 18.4318C12.1345 18.4318 12.3955 18.4318 13.1919 18.386C13.8149 18.3733 14.4312 18.2552 15.0148 18.0366C15.5132 17.8433 15.9659 17.5482 16.344 17.1701C16.722 16.7921 17.0171 16.3394 17.2104 15.8409C17.4297 15.2572 17.5473 14.6418 17.5598 14.018C17.5957 13.2158 17.6065 12.9615 17.6065 10.9242C17.6065 8.88701 17.6065 8.6285 17.5598 7.83046C17.5501 7.19859 17.4314 6.57314 17.2088 5.9817ZM16.1931 13.9304C16.1877 14.411 16.1 14.8871 15.9337 15.3381C15.8085 15.6624 15.6168 15.9568 15.3709 16.2026C15.125 16.4483 14.8304 16.6398 14.5061 16.7649C14.0601 16.9304 13.5891 17.0181 13.1135 17.0242C12.3213 17.0609 12.0978 17.0701 10.0664 17.0701C8.03334 17.0701 7.8257 17.0701 7.01848 17.0242C6.5431 17.0184 6.07227 16.9307 5.6267 16.7649C5.30122 16.6406 5.00544 16.4494 4.75852 16.2036C4.51159 15.9579 4.319 15.663 4.19322 15.3381C4.02932 14.892 3.94164 14.4215 3.93388 13.9463C3.89802 13.1541 3.88968 12.9306 3.88968 10.8992C3.88968 8.867 3.88968 8.65936 3.93388 7.85131C3.93927 7.371 4.02699 6.89517 4.19322 6.44451C4.44756 5.78657 4.96875 5.26871 5.6267 5.01688C6.07249 4.85188 6.54318 4.76417 7.01848 4.75753C7.81152 4.72167 8.03417 4.71167 10.0664 4.71167C12.0986 4.71167 12.3071 4.71167 13.1135 4.75753C13.5891 4.76325 14.0602 4.85099 14.5061 5.01688C14.8304 5.14219 15.125 5.33393 15.3708 5.57978C15.6167 5.82564 15.8084 6.12019 15.9337 6.44451C16.0976 6.89061 16.1853 7.36111 16.1931 7.8363C16.2289 8.62934 16.2381 8.85199 16.2381 10.8842C16.2381 12.9156 16.2381 13.1341 16.2022 13.9313H16.1931V13.9304Z" fill="white"/>
</svg>
