<svg width="18" height="18" viewBox="0 0 18 18" fill="none" xmlns="http://www.w3.org/2000/svg">
<path fill-rule="evenodd" clip-rule="evenodd" d="M7.01634 6.36517H10.1135V7.90789C10.5596 7.02062 11.7037 6.22341 13.4224 6.22341C16.7171 6.22341 17.4993 7.98961 17.4993 11.2302V17.2317H14.1637V11.9682C14.1637 10.1227 13.7176 9.08202 12.5818 9.08202C11.0066 9.08202 10.3519 10.2036 10.3519 11.9673V17.2317H7.01634V6.36517ZM1.29661 17.09H4.63222V6.22341H1.29661V17.09ZM5.11004 2.68016C5.11017 2.95975 5.05472 3.23657 4.94692 3.49454C4.83912 3.75251 4.68113 3.98648 4.48212 4.18285C4.07884 4.58364 3.53298 4.80799 2.96442 4.80661C2.39685 4.80623 1.85225 4.58245 1.44838 4.18368C1.25009 3.98664 1.09263 3.75241 0.98502 3.49441C0.877412 3.2364 0.821772 2.9597 0.821289 2.68016C0.821289 2.11561 1.04644 1.57524 1.44922 1.17664C1.85273 0.777329 2.39756 0.553461 2.96525 0.553711C3.53397 0.553711 4.07934 0.778031 4.48212 1.17664C4.88406 1.57524 5.11004 2.11561 5.11004 2.68016Z" fill="white"/>
</svg>
