<svg width="21" height="21" viewBox="0 0 21 21" fill="none" xmlns="http://www.w3.org/2000/svg">
<g clip-path="url(#clip0_12_1515)">
<g clip-path="url(#clip1_12_1515)">
<path d="M15.581 4.31871C14.0991 2.83332 12.1257 2.01636 10.0284 2.01636C5.69959 2.01636 2.17711 5.53885 2.17711 9.86769C2.17711 11.2505 2.53784 12.6015 3.22395 13.7934L2.10991 17.8605L6.27253 16.7677C7.4184 17.3936 8.70927 17.7226 10.0249 17.7226H10.0284C14.3537 17.7226 17.954 14.2001 17.954 9.87123C17.954 7.774 17.0628 5.80409 15.581 4.31871ZM10.0284 16.3999C8.85427 16.3999 7.70487 16.0851 6.704 15.4909L6.46704 15.3495L3.99847 15.9967L4.65629 13.5882L4.50067 13.3407C3.8464 12.3009 3.50334 11.102 3.50334 9.86769C3.50334 6.27093 6.43168 3.3426 10.032 3.3426C11.7755 3.3426 13.413 4.02163 14.6437 5.25592C15.8745 6.4902 16.6313 8.12766 16.6278 9.87123C16.6278 13.4715 13.6252 16.3999 10.0284 16.3999ZM13.6075 11.5122C13.413 11.4132 12.4475 10.9393 12.2671 10.8756C12.0868 10.8084 11.9559 10.7766 11.825 10.9747C11.6942 11.1727 11.3193 11.6112 11.2026 11.7456C11.0894 11.8765 10.9727 11.8942 10.7782 11.7952C9.62526 11.2187 8.86842 10.766 8.10804 9.46098C7.90646 9.11439 8.30963 9.13914 8.68451 8.38937C8.74817 8.25852 8.71634 8.14535 8.66683 8.04632C8.61732 7.9473 8.22475 6.98179 8.06207 6.58923C7.90292 6.20727 7.74023 6.26032 7.61999 6.25325C7.50681 6.24617 7.37596 6.24617 7.2451 6.24617C7.11425 6.24617 6.90205 6.29569 6.72168 6.4902C6.54131 6.68825 6.03557 7.16216 6.03557 8.12766C6.03557 9.09317 6.73937 10.0268 6.83485 10.1577C6.93388 10.2885 8.21768 12.2691 10.1876 13.1214C11.4325 13.659 11.9205 13.7049 12.543 13.613C12.9214 13.5564 13.703 13.1391 13.8657 12.6793C14.0284 12.2196 14.0284 11.827 13.9789 11.7456C13.9329 11.6572 13.802 11.6077 13.6075 11.5122Z" fill="white"/>
</g>
</g>
<defs>
<clipPath id="clip0_12_1515">
<rect width="20.0136" height="20.0136" fill="white" transform="translate(0.441238 0.88623)"/>
</clipPath>
<clipPath id="clip1_12_1515">
<rect width="15.8441" height="18.1076" fill="white" transform="translate(2.10931 0.885986)"/>
</clipPath>
</defs>
</svg>
