<svg width="21" height="21" viewBox="0 0 21 21" fill="none" xmlns="http://www.w3.org/2000/svg">
<path d="M19.5598 10.8368C19.5598 10.7938 19.5598 10.7449 19.5579 10.6883C19.5559 10.53 19.552 10.3521 19.5481 10.1625C19.5325 9.61723 19.5051 9.07389 19.4621 8.56182C19.4035 7.85626 19.3175 7.26797 19.2002 6.82626C19.0765 6.3653 18.8339 5.9449 18.4967 5.60707C18.1596 5.26924 17.7397 5.02581 17.279 4.90112C16.7259 4.75259 15.6431 4.66073 14.1186 4.60405C13.3935 4.57668 12.6176 4.55909 11.8417 4.54932C11.57 4.54541 11.3179 4.54346 11.0912 4.5415H10.5166C10.2898 4.54346 10.0377 4.54541 9.76605 4.54932C8.99013 4.55909 8.21421 4.57668 7.4891 4.60405C5.96463 4.66268 4.8799 4.75454 4.32875 4.90112C3.86789 5.0255 3.44781 5.26883 3.11062 5.60671C2.77343 5.94458 2.53096 6.36515 2.40752 6.82626C2.2883 7.26797 2.20425 7.85626 2.14562 8.56182C2.10262 9.07389 2.07526 9.61723 2.05962 10.1625C2.05376 10.3521 2.05181 10.53 2.04985 10.6883C2.04985 10.7449 2.0479 10.7938 2.0479 10.8368V10.9463C2.0479 10.9893 2.0479 11.0381 2.04985 11.0948C2.05181 11.2531 2.05572 11.431 2.05962 11.6205C2.07526 12.1658 2.10262 12.7092 2.14562 13.2212C2.20425 13.9268 2.29025 14.5151 2.40752 14.9568C2.65769 15.893 3.39256 16.6318 4.32875 16.8819C4.8799 17.0305 5.96463 17.1223 7.4891 17.179C8.21421 17.2064 8.99013 17.224 9.76605 17.2337C10.0377 17.2377 10.2898 17.2396 10.5166 17.2416H11.0912C11.3179 17.2396 11.57 17.2377 11.8417 17.2337C12.6176 17.224 13.3935 17.2064 14.1186 17.179C15.6431 17.1204 16.7278 17.0285 17.279 16.8819C18.2152 16.6318 18.95 15.8949 19.2002 14.9568C19.3194 14.5151 19.4035 13.9268 19.4621 13.2212C19.5051 12.7092 19.5325 12.1658 19.5481 11.6205C19.554 11.431 19.5559 11.2531 19.5579 11.0948C19.5579 11.0381 19.5598 10.9893 19.5598 10.9463V10.8368ZM18.1526 10.9384C18.1526 10.9795 18.1526 11.0244 18.1507 11.0772C18.1487 11.2297 18.1448 11.3977 18.1409 11.5795C18.1272 12.0994 18.0998 12.6193 18.0588 13.102C18.006 13.7314 17.9318 14.2473 17.8399 14.5933C17.7187 15.0448 17.363 15.4024 16.9135 15.5216C16.5031 15.6311 15.4692 15.719 14.0639 15.7718C13.3525 15.7992 12.5863 15.8168 11.8221 15.8265C11.5544 15.8304 11.3062 15.8324 11.0834 15.8324H10.5244L9.78559 15.8265C9.0214 15.8168 8.25721 15.7992 7.54383 15.7718C6.13858 15.7171 5.10271 15.6311 4.69423 15.5216C4.24471 15.4005 3.889 15.0448 3.76782 14.5933C3.67596 14.2473 3.60169 13.7314 3.54892 13.102C3.50788 12.6193 3.48247 12.0994 3.46683 11.5795C3.46097 11.3977 3.45902 11.2277 3.45706 11.0772C3.45706 11.0244 3.45511 10.9775 3.45511 10.9384V10.8446C3.45511 10.8036 3.45511 10.7586 3.45706 10.7059C3.45902 10.5534 3.46292 10.3853 3.46683 10.2036C3.48051 9.68368 3.50788 9.16379 3.54892 8.68104C3.60169 8.05171 3.67596 7.53573 3.76782 7.18979C3.889 6.73831 4.24471 6.38065 4.69423 6.26143C5.10467 6.15198 6.13858 6.06403 7.54383 6.01125C8.25525 5.98389 9.0214 5.9663 9.78559 5.95653C10.0534 5.95262 10.3016 5.95067 10.5244 5.95067H11.0834L11.8221 5.95653C12.5863 5.9663 13.3505 5.98389 14.0639 6.01125C15.4692 6.06598 16.505 6.15198 16.9135 6.26143C17.363 6.3826 17.7187 6.73831 17.8399 7.18979C17.9318 7.53573 18.006 8.05171 18.0588 8.68104C18.0998 9.16379 18.1253 9.68368 18.1409 10.2036C18.1468 10.3853 18.1487 10.5554 18.1507 10.7059C18.1507 10.7586 18.1526 10.8055 18.1526 10.8446V10.9384ZM9.0644 13.5105L13.5987 10.872L9.0644 8.27256V13.5105Z" fill="white"/>
</svg>
